<svg width="22" height="23" viewBox="0 0 22 23" fill="none" xmlns="http://www.w3.org/2000/svg">
<g id="hicccc" clip-path="url(#clip0_444_36)">
<path id="Vector" d="M0.53335 6.64894L10.5425 11.3958C10.8347 11.5346 11.1651 11.5346 11.4573 11.3958L21.4664 6.64894C22.1776 6.31158 22.1776 5.18808 21.4664 4.85072L11.4577 0.103372C11.3142 0.0347726 11.1582 -0.000732422 11.0003 -0.000732422C10.8425 -0.000732422 10.6865 0.0347726 10.5429 0.103372L0.53335 4.85027C-0.177783 5.18763 -0.177783 6.31158 0.53335 6.64894ZM21.4669 10.6146L18.9708 9.43185L12.0253 12.7233C11.7005 12.8774 11.3555 12.9555 11.0001 12.9555C10.6448 12.9555 10.3001 12.8774 9.97488 12.7233L3.02983 9.43185L0.53335 10.6146C-0.177783 10.9516 -0.177783 12.0746 0.53335 12.4115L10.5425 17.1548C10.8347 17.2932 11.1651 17.2932 11.4573 17.1548L21.4669 12.4115C22.178 12.0746 22.178 10.9516 21.4669 10.6146ZM21.4669 16.3557L18.9803 15.1774L12.0253 18.4733C11.7005 18.6274 11.3555 18.7055 11.0001 18.7055C10.6448 18.7055 10.3001 18.6274 9.97488 18.4733L3.02038 15.1774L0.53335 16.3557C-0.177783 16.6926 -0.177783 17.8156 0.53335 18.1525L10.5425 22.8958C10.8347 23.0342 11.1651 23.0342 11.4573 22.8958L21.4669 18.1525C22.178 17.8156 22.178 16.6926 21.4669 16.3557Z" fill="black"/>
</g>
<defs>
<clipPath id="clip0_444_36">
<rect width="22" height="23" fill="white"/>
</clipPath>
</defs>
</svg>
