<svg width="23" height="27" viewBox="0 0 23 27" fill="none" xmlns="http://www.w3.org/2000/svg">
<g id="hocico 1" clip-path="url(#clip0_451_106)">
<path id="Vector" d="M22.5791 10.5732C22.1837 8.9437 21.4342 7.71498 19.8375 7.71498H17.7788V10.2146C17.7788 12.1552 16.177 13.79 14.3494 13.79H8.86633C7.36723 13.79 6.12481 15.1083 6.12481 16.6535V22.0218C6.12481 23.5511 7.41856 24.4476 8.86633 24.8853C10.6016 25.4074 12.2701 25.5023 14.3494 24.8853C15.7304 24.474 17.0909 23.646 17.0909 22.0218V19.8755H11.613V19.1583H19.8375C21.4342 19.1583 22.0246 18.014 22.5791 16.3001C23.1541 14.5335 23.1284 12.8355 22.5791 10.5732ZM14.6933 21.3046C15.2632 21.3046 15.7253 21.7845 15.7253 22.3751C15.7253 22.971 15.2632 23.4509 14.6933 23.4509C14.1286 23.4509 13.6614 22.9658 13.6614 22.3751C13.6666 21.7792 14.1286 21.3046 14.6933 21.3046ZM8.61477 13.0833H14.0978C15.6226 13.0833 16.8393 11.7914 16.8393 10.2199V4.84624C16.8393 3.31694 15.5866 2.1726 14.0978 1.9142C12.2599 1.60307 10.2628 1.61889 8.61477 1.91948C6.29423 2.34135 5.87325 3.22202 5.87325 4.85151V6.9978H11.3614V7.71498H3.81455C2.2179 7.71498 0.821467 8.70112 0.385083 10.5732C-0.118042 12.7195 -0.138578 14.0589 0.385083 16.3001C0.775262 17.9665 1.7045 19.1583 3.30115 19.1583H5.18531V16.5849C5.18531 14.7234 6.75115 13.0833 8.61477 13.0833ZM8.2708 5.56342C7.70093 5.56342 7.23888 5.08354 7.23888 4.49291C7.24401 3.89702 7.70093 3.41713 8.2708 3.41713C8.83553 3.41713 9.30272 3.90229 9.30272 4.49291C9.30272 5.08354 8.84066 5.56342 8.2708 5.56342Z" fill="black"/>
</g>
<defs>
<clipPath id="clip0_451_106">
<rect width="23" height="27" fill="white"/>
</clipPath>
</defs>
</svg>
