<svg width="18" height="24" viewBox="0 0 18 24" fill="none" xmlns="http://www.w3.org/2000/svg">
<g id="hocico" clip-path="url(#clip0_444_40)">
<path id="Vector" d="M18 6.75C18 4.67812 16.3219 3 14.25 3C12.1781 3 10.5 4.67812 10.5 6.75C10.5 8.45625 11.6391 9.89531 13.1953 10.35C13.1672 11.1047 12.9984 11.6859 12.6797 12.0797C11.9578 12.9797 10.3688 13.1297 8.68594 13.2844C7.36406 13.4062 5.99531 13.5375 4.875 14.0766V7.32656C6.39844 6.84844 7.5 5.42812 7.5 3.75C7.5 1.67812 5.82188 0 3.75 0C1.67812 0 0 1.67812 0 3.75C0 5.42812 1.10156 6.84844 2.625 7.32656V16.6688C1.10156 17.1516 0 18.5719 0 20.25C0 22.3219 1.67812 24 3.75 24C5.82188 24 7.5 22.3219 7.5 20.25C7.5 18.6562 6.50625 17.2922 5.1 16.7531C5.24531 16.5094 5.46562 16.2938 5.79844 16.125C6.55781 15.7406 7.69219 15.6375 8.89688 15.525C10.875 15.3422 13.1156 15.1312 14.4375 13.4906C15.0938 12.675 15.4266 11.625 15.45 10.3078C16.9312 9.80156 18 8.4 18 6.75ZM3.75 3C4.1625 3 4.5 3.3375 4.5 3.75C4.5 4.1625 4.1625 4.5 3.75 4.5C3.3375 4.5 3 4.1625 3 3.75C3 3.3375 3.3375 3 3.75 3ZM3.75 21C3.3375 21 3 20.6625 3 20.25C3 19.8375 3.3375 19.5 3.75 19.5C4.1625 19.5 4.5 19.8375 4.5 20.25C4.5 20.6625 4.1625 21 3.75 21ZM14.25 6C14.6625 6 15 6.3375 15 6.75C15 7.1625 14.6625 7.5 14.25 7.5C13.8375 7.5 13.5 7.1625 13.5 6.75C13.5 6.3375 13.8375 6 14.25 6Z" fill="black"/>
</g>
<defs>
<clipPath id="clip0_444_40">
<rect width="18" height="24" fill="white"/>
</clipPath>
</defs>
</svg>
