<svg width="29" height="25" viewBox="0 0 29 25" fill="none" xmlns="http://www.w3.org/2000/svg">
<g id="hcccc" clip-path="url(#clip0_444_38)">
<path id="Vector" d="M21.7523 4.6875H7.24908C6.0537 4.68732 4.87683 5.00564 3.82323 5.61414C2.76963 6.22263 1.87201 7.10242 1.21027 8.17516C0.548535 9.24791 0.143218 10.4803 0.0304062 11.7627C-0.0824056 13.0451 0.100788 14.3376 0.563678 15.5253C1.02657 16.7129 1.75479 17.7587 2.68351 18.5697C3.61224 19.3807 4.71264 19.9317 5.88676 20.1735C7.06088 20.4154 8.27228 20.3407 9.41312 19.956C10.554 19.5713 11.5888 18.8887 12.4256 17.9688H16.5726C17.4093 18.8886 18.444 19.5712 19.5847 19.9559C20.7254 20.3406 21.9366 20.4154 23.1106 20.1737C24.2846 19.932 25.385 19.3813 26.3137 18.5705C27.2425 17.7598 27.9708 16.7142 28.4339 15.5268C28.897 14.3394 29.0804 13.0471 28.9679 11.7648C28.8555 10.4826 28.4506 9.25016 27.7892 8.1773C27.1279 7.10444 26.2306 6.22441 25.1774 5.61555C24.1241 5.00669 22.9475 4.68788 21.7523 4.6875ZM11.2366 13.0859C11.2366 13.2413 11.1793 13.3904 11.0773 13.5003C10.9754 13.6101 10.837 13.6719 10.6928 13.6719H8.33658V16.2109C8.33658 16.3663 8.2793 16.5154 8.17732 16.6253C8.07535 16.7351 7.93705 16.7969 7.79283 16.7969H6.70533C6.56112 16.7969 6.42282 16.7351 6.32085 16.6253C6.21887 16.5154 6.16158 16.3663 6.16158 16.2109V13.6719H3.80533C3.66112 13.6719 3.52282 13.6101 3.42085 13.5003C3.31887 13.3904 3.26158 13.2413 3.26158 13.0859V11.9141C3.26158 11.7587 3.31887 11.6096 3.42085 11.4997C3.52282 11.3899 3.66112 11.3281 3.80533 11.3281H6.16158V8.78906C6.16158 8.63366 6.21887 8.48463 6.32085 8.37474C6.42282 8.26486 6.56112 8.20312 6.70533 8.20312H7.79283C7.93705 8.20312 8.07535 8.26486 8.17732 8.37474C8.2793 8.48463 8.33658 8.63366 8.33658 8.78906V11.3281H10.6928C10.837 11.3281 10.9754 11.3899 11.0773 11.4997C11.1793 11.6096 11.2366 11.7587 11.2366 11.9141V13.0859ZM21.0241 16.7969C20.6656 16.7969 20.3152 16.6823 20.0171 16.4677C19.719 16.2531 19.4867 15.9481 19.3496 15.5912C19.2124 15.2343 19.1765 14.8416 19.2464 14.4627C19.3163 14.0838 19.489 13.7358 19.7425 13.4627C19.9959 13.1895 20.3189 13.0035 20.6705 12.9282C21.0221 12.8528 21.3865 12.8915 21.7177 13.0393C22.0489 13.1871 22.332 13.4375 22.5311 13.7587C22.7303 14.0798 22.8366 14.4575 22.8366 14.8438C22.8366 15.3618 22.6456 15.8585 22.3057 16.2248C21.9658 16.5911 21.5048 16.7969 21.0241 16.7969ZM23.9241 12.1094C23.5656 12.1094 23.2152 11.9948 22.9171 11.7802C22.619 11.5656 22.3867 11.2606 22.2496 10.9037C22.1124 10.5468 22.0765 10.1541 22.1464 9.77521C22.2163 9.39634 22.389 9.04833 22.6425 8.77518C22.8959 8.50203 23.2189 8.31602 23.5705 8.24065C23.9221 8.16529 24.2865 8.20397 24.6177 8.3518C24.9489 8.49962 25.232 8.74996 25.4311 9.07115C25.6303 9.39234 25.7366 9.76996 25.7366 10.1562C25.7366 10.6743 25.5456 11.171 25.2057 11.5373C24.8658 11.9036 24.4048 12.1094 23.9241 12.1094Z" fill="black"/>
</g>
<defs>
<clipPath id="clip0_444_38">
<rect width="29" height="25" fill="white"/>
</clipPath>
</defs>
</svg>
