<svg width="27" height="24" viewBox="0 0 27 24" fill="none" xmlns="http://www.w3.org/2000/svg">
<g id="hiccc">
<path id="Vector" d="M26.8368 11.3156C24.2948 6.35578 19.2623 3 13.5 3C7.73763 3 2.70372 6.35813 0.163099 11.3161C0.055869 11.5282 0 11.7626 0 12.0002C0 12.2379 0.055869 12.4723 0.163099 12.6844C2.70513 17.6442 7.73763 21 13.5 21C19.2623 21 24.2962 17.6419 26.8368 12.6839C26.9441 12.4718 26.9999 12.2374 26.9999 11.9998C26.9999 11.7621 26.9441 11.5277 26.8368 11.3156ZM13.5 18.75C12.1649 18.75 10.8599 18.3541 9.74987 17.6124C8.63984 16.8707 7.77468 15.8165 7.26379 14.5831C6.7529 13.3497 6.61922 11.9925 6.87967 10.6831C7.14012 9.37377 7.783 8.17103 8.727 7.22703C9.67101 6.28302 10.8737 5.64015 12.1831 5.3797C13.4925 5.11925 14.8497 5.25292 16.0831 5.76381C17.3165 6.2747 18.3707 7.13987 19.1124 8.2499C19.8541 9.35993 20.25 10.665 20.25 12C20.2504 12.8865 20.0761 13.7645 19.737 14.5836C19.398 15.4028 18.9008 16.1471 18.2739 16.7739C17.647 17.4008 16.9027 17.898 16.0836 18.2371C15.2645 18.5761 14.3865 18.7504 13.5 18.75ZM13.5 7.5C13.0983 7.50561 12.6993 7.56537 12.3136 7.67766C12.6315 8.10969 12.784 8.64135 12.7436 9.17622C12.7031 9.71109 12.4723 10.2138 12.093 10.593C11.7137 10.9723 11.2111 11.2031 10.6762 11.2436C10.1413 11.2841 9.60966 11.1315 9.17763 10.8136C8.93161 11.72 8.97602 12.6807 9.30461 13.5605C9.63319 14.4403 10.2294 15.1949 11.0093 15.7181C11.7892 16.2413 12.7136 16.5068 13.6523 16.4771C14.591 16.4475 15.4968 16.1242 16.2421 15.5528C16.9874 14.9814 17.5348 14.1907 17.8072 13.2919C18.0796 12.3931 18.0633 11.4315 17.7606 10.5425C17.4578 9.65342 16.8839 8.8817 16.1196 8.33593C15.3553 7.79015 14.4391 7.49779 13.5 7.5Z" fill="black"/>
</g>
</svg>
